# xmcd
#
# Track frame offsets:
#	150
#	45502
#	81037
#	106162
#	144280
#	198645
#	232995
#	259192
#
# Disc length: 3864 seconds
#
# Revision: 1
# Processed by: cddbd v1.4PL0 Copyright (c) Steve Scherf et al.
# Submitted via: audiograbber 1.80
#
DISCID=600f1608
DTITLE=Renzi, Tate, Leonhart, Pelosi - Providence Jam
DYEAR=1900
DGENRE=
TTITLE0=A Hard Day's Night
TTITLE1=Carl's Blues
TTITLE2=Hello
TTITLE3=A Beautiful Friendship
TTITLE4=Just The Way You Are
TTITLE5=All Blues
TTITLE6=Someone to Light Up My Life
TTITLE7=Come on Home
EXTD=
EXTT0=
EXTT1=
EXTT2=
EXTT3=
EXTT4=
EXTT5=
EXTT6=
EXTT7=
PLAYORDER=
